# xmcd CD database file
#
# Track frame offsets:
#	150
#	17192
#	46450
#
# Disc length: 1142 seconds
#
# Revision: 3
# Processed by: cddbd v1.5.2PL0 Copyright (c) Steve Scherf et al.
# Submitted via: CDex 1.82
#
DISCID=1f047403
DTITLE=Robin S - Show me love
DYEAR=1992
DGENRE=Blues
TTITLE0=Show me love (Single Edit)
TTITLE1=Show me love (Stone Bridge Clubmix)
TTITLE2=Show me love (AKA Remix)
EXTD=YEAR: 1992
EXTT0=
EXTT1=
EXTT2=
PLAYORDER=
